<svg width="30" height="30" viewBox="0 0 30 30" fill="none" xmlns="http://www.w3.org/2000/svg">
<path d="M13.125 11.25C12.9396 11.25 12.7583 11.305 12.6042 11.408C12.45 11.511 12.3298 11.6574 12.2589 11.8287C12.1879 12 12.1693 12.1885 12.2055 12.3704C12.2417 12.5523 12.331 12.7193 12.4621 12.8504C12.5932 12.9815 12.7602 13.0708 12.9421 13.107C13.124 13.1432 13.3125 13.1246 13.4838 13.0536C13.6551 12.9827 13.8015 12.8625 13.9045 12.7083C14.0075 12.5542 14.0625 12.3729 14.0625 12.1875C14.0625 11.9389 13.9637 11.7004 13.7879 11.5246C13.6121 11.3488 13.3736 11.25 13.125 11.25ZM27.334 4.90312L16.084 0.215625C15.7379 0.0847829 15.3727 0.0119295 15.0029 0C14.633 0.0116777 14.2676 0.0843339 13.9213 0.215039L2.67129 4.90254C2.15765 5.11527 1.71871 5.47566 1.41006 5.93805C1.10141 6.40045 0.936949 6.94405 0.937501 7.5C0.937501 19.1309 7.64649 27.1711 13.916 29.7844C14.2587 29.9268 14.6262 30.0001 14.9974 30.0001C15.3685 30.0001 15.736 29.9268 16.0787 29.7844C21.099 27.692 29.0625 20.4668 29.0625 7.5C29.0628 6.94488 28.8989 6.40207 28.5913 5.93995C28.2837 5.47784 27.8462 5.11708 27.334 4.90312ZM22.5 15H21.7898C20.1193 15 19.2826 17.0197 20.4639 18.201L20.9666 18.7031C21.1424 18.879 21.2412 19.1174 21.2412 19.3661C21.2412 19.6148 21.1424 19.8533 20.9666 20.0291C20.7908 20.2049 20.5523 20.3037 20.3036 20.3037C20.0549 20.3037 19.8165 20.2049 19.6406 20.0291L19.1385 19.5264C17.9572 18.3451 15.9375 19.1818 15.9375 20.8523V21.5625C15.9375 21.8111 15.8387 22.0496 15.6629 22.2254C15.4871 22.4012 15.2486 22.5 15 22.5C14.7514 22.5 14.5129 22.4012 14.3371 22.2254C14.1613 22.0496 14.0625 21.8111 14.0625 21.5625V20.8523C14.0625 19.1818 12.0428 18.3451 10.8615 19.5264L10.3594 20.0291C10.2723 20.1162 10.169 20.1852 10.0552 20.2323C9.94144 20.2795 9.81952 20.3037 9.69639 20.3037C9.57326 20.3037 9.45134 20.2795 9.33758 20.2323C9.22383 20.1852 9.12047 20.1162 9.0334 20.0291C8.94634 19.942 8.87727 19.8387 8.83015 19.7249C8.78303 19.6112 8.75878 19.4892 8.75878 19.3661C8.75878 19.243 8.78303 19.1211 8.83015 19.0073C8.87727 18.8936 8.94634 18.7902 9.0334 18.7031L9.53613 18.201C10.7174 17.0197 9.88067 15 8.21016 15H7.5C7.25136 15 7.0129 14.9012 6.83709 14.7254C6.66127 14.5496 6.5625 14.3111 6.5625 14.0625C6.5625 13.8139 6.66127 13.5754 6.83709 13.3996C7.0129 13.2238 7.25136 13.125 7.5 13.125H8.21016C9.88067 13.125 10.7174 11.1053 9.53613 9.92402L9.0334 9.42188C8.85757 9.24604 8.75878 9.00756 8.75878 8.75889C8.75878 8.51022 8.85757 8.27173 9.0334 8.0959C9.20924 7.92006 9.44772 7.82128 9.69639 7.82128C9.94506 7.82128 10.1835 7.92006 10.3594 8.0959L10.8615 8.59863C12.0428 9.77988 14.0625 8.94316 14.0625 7.27266V6.5625C14.0625 6.31386 14.1613 6.0754 14.3371 5.89959C14.5129 5.72377 14.7514 5.625 15 5.625C15.2486 5.625 15.4871 5.72377 15.6629 5.89959C15.8387 6.0754 15.9375 6.31386 15.9375 6.5625V7.27266C15.9375 8.94316 17.9572 9.77988 19.1385 8.59863L19.6406 8.0959C19.8165 7.92006 20.0549 7.82128 20.3036 7.82128C20.5523 7.82128 20.7908 7.92006 20.9666 8.0959C21.1424 8.27173 21.2412 8.51022 21.2412 8.75889C21.2412 9.00756 21.1424 9.24604 20.9666 9.42188L20.4639 9.92402C19.2826 11.1053 20.1193 13.125 21.7898 13.125H22.5C22.7486 13.125 22.9871 13.2238 23.1629 13.3996C23.3387 13.5754 23.4375 13.8139 23.4375 14.0625C23.4375 14.3111 23.3387 14.5496 23.1629 14.7254C22.9871 14.9012 22.7486 15 22.5 15ZM16.875 15C16.6896 15 16.5083 15.055 16.3542 15.158C16.2 15.261 16.0798 15.4074 16.0089 15.5787C15.9379 15.75 15.9193 15.9385 15.9555 16.1204C15.9917 16.3023 16.081 16.4693 16.2121 16.6004C16.3432 16.7315 16.5102 16.8208 16.6921 16.857C16.874 16.8932 17.0625 16.8746 17.2338 16.8036C17.4051 16.7327 17.5515 16.6125 17.6545 16.4583C17.7575 16.3042 17.8125 16.1229 17.8125 15.9375C17.8125 15.6889 17.7137 15.4504 17.5379 15.2746C17.3621 15.0988 17.1236 15 16.875 15Z" fill="#9ED3F1"/>
</svg>
