<svg width="18" height="18" viewBox="0 0 18 18" fill="none" xmlns="http://www.w3.org/2000/svg">
<g clip-path="url(#clip0)">
<path d="M9.41203 8.99796L17.9148 0.495178C18.0281 0.381828 18.0281 0.19809 17.9148 0.0847405C17.8015 -0.0285724 17.6177 -0.0285724 17.5044 0.0847405L9.0016 8.58752L0.498834 0.0847405C0.383526 -0.0266131 0.199787 -0.0234201 0.0883977 0.0918883C-0.0202344 0.204367 -0.0202344 0.382699 0.0883977 0.495178L8.59116 8.99796L0.0883977 17.5007C-0.0269105 17.6121 -0.0301034 17.7959 0.0812862 17.9112C0.192676 18.0265 0.376414 18.0297 0.491722 17.9183C0.494153 17.916 0.496512 17.9136 0.498834 17.9112L9.0016 9.40839L17.5044 17.9112C17.6197 18.0226 17.8034 18.0194 17.9148 17.9041C18.0235 17.7916 18.0235 17.6132 17.9148 17.5007L9.41203 8.99796Z" fill="#303342"/>
</g>
<defs>
<clipPath id="clip0">
<rect width="18" height="18" fill="white"/>
</clipPath>
</defs>
</svg>
