<svg width="20" height="20" viewBox="0 0 20 20" fill="none" xmlns="http://www.w3.org/2000/svg">
<path d="M19.4293 14.1332L15.0543 12.2582C14.8674 12.1785 14.6597 12.1618 14.4624 12.2104C14.2652 12.259 14.089 12.3704 13.9605 12.5277L12.023 14.8949C8.98232 13.4612 6.53524 11.0142 5.10156 7.97343L7.46875 6.03593C7.62644 5.90768 7.73804 5.73154 7.78668 5.53419C7.83531 5.33684 7.81832 5.12901 7.73828 4.94218L5.86328 0.567176C5.77543 0.365772 5.62007 0.201334 5.42397 0.102214C5.22787 0.00309381 5.00332 -0.0244943 4.78906 0.0242064L0.726562 0.961707C0.519987 1.00941 0.335681 1.12572 0.203724 1.29166C0.0717671 1.4576 -4.81824e-05 1.66337 -5.72389e-07 1.87538C-5.72389e-07 11.8949 8.12109 20.0004 18.125 20.0004C18.3371 20.0005 18.5429 19.9288 18.709 19.7968C18.875 19.6648 18.9913 19.4805 19.0391 19.2738L19.9766 15.2113C20.025 14.996 19.9968 14.7706 19.8969 14.5738C19.797 14.377 19.6317 14.2212 19.4293 14.1332Z" fill="white"/>
</svg>
