<svg width="20" height="20" viewBox="0 0 20 20" fill="none" xmlns="http://www.w3.org/2000/svg">
<g clip-path="url(#clip0)">
<path d="M19.4293 14.1331L15.0543 12.2581C14.8674 12.1785 14.6597 12.1617 14.4624 12.2103C14.2652 12.2589 14.089 12.3703 13.9605 12.5277L12.023 14.8949C8.98232 13.4612 6.53524 11.0141 5.10156 7.97337L7.46875 6.03587C7.62644 5.90762 7.73805 5.73148 7.78668 5.53413C7.83531 5.33678 7.81832 5.12895 7.73828 4.94212L5.86328 0.567114C5.77544 0.365711 5.62007 0.201273 5.42397 0.102153C5.22787 0.00303278 5.00333 -0.0245554 4.78906 0.0241453L0.726563 0.961646C0.519988 1.00935 0.335682 1.12566 0.203725 1.2916C0.0717677 1.45754 -4.75863e-05 1.66331 2.36571e-08 1.87532C2.36571e-08 11.8949 8.12109 20.0003 18.125 20.0003C18.3371 20.0005 18.5429 19.9287 18.709 19.7967C18.875 19.6648 18.9913 19.4804 19.0391 19.2738L19.9766 15.2113C20.025 14.996 19.9968 14.7705 19.8969 14.5737C19.797 14.377 19.6317 14.2212 19.4293 14.1331Z" fill="#30A2E4"/>
</g>
<defs>
<clipPath id="clip0">
<rect width="20" height="20" fill="white"/>
</clipPath>
</defs>
</svg>
