<svg width="17" height="16" viewBox="0 0 17 16" fill="none" xmlns="http://www.w3.org/2000/svg">
<path d="M8.5 0C3.80557 0 0 3.58171 0 8C0 12.4183 3.80557 16 8.5 16C13.1944 16 17 12.4183 17 8C17 3.58171 13.1944 0 8.5 0ZM8.5 1.54839C12.2884 1.54839 15.3548 4.4339 15.3548 8C15.3548 11.5655 12.289 14.4516 8.5 14.4516C4.71161 14.4516 1.64516 11.5661 1.64516 8C1.64516 4.43445 4.71102 1.54839 8.5 1.54839ZM13.3054 5.75055L12.533 5.01771C12.373 4.86594 12.1126 4.86494 11.9513 5.01552L7.10662 9.53861L5.05729 7.59419C4.89734 7.44242 4.63692 7.44142 4.47566 7.59197L3.69699 8.31894C3.53573 8.46948 3.53466 8.71458 3.69466 8.86639L6.8061 11.8185C6.96606 11.9703 7.22647 11.9713 7.38773 11.8207L13.3031 6.298C13.4643 6.14742 13.4653 5.90232 13.3054 5.75055Z" fill="#30A2E4"/>
</svg>
